<?xml version="1.0" encoding="utf-8" standalone="no"?>
<!DOCTYPE svg PUBLIC "-//W3C//DTD SVG 1.1//EN"
  "http://www.w3.org/Graphics/SVG/1.1/DTD/svg11.dtd">
<svg xmlns:xlink="http://www.w3.org/1999/xlink" width="460.8pt" height="345.6pt" viewBox="0 0 460.8 345.6" xmlns="http://www.w3.org/2000/svg" version="1.1">
 <metadata>
  <rdf:RDF xmlns:dc="http://purl.org/dc/elements/1.1/" xmlns:cc="http://creativecommons.org/ns#" xmlns:rdf="http://www.w3.org/1999/02/22-rdf-syntax-ns#">
   <cc:Work>
    <dc:type rdf:resource="http://purl.org/dc/dcmitype/StillImage"/>
    <dc:date>2024-11-21T23:39:35.842049</dc:date>
    <dc:format>image/svg+xml</dc:format>
    <dc:creator>
     <cc:Agent>
      <dc:title>Matplotlib v3.9.2, https://matplotlib.org/</dc:title>
     </cc:Agent>
    </dc:creator>
   </cc:Work>
  </rdf:RDF>
 </metadata>
 <defs>
  <style type="text/css">*{stroke-linejoin: round; stroke-linecap: butt}</style>
 </defs>
 <g id="figure_1">
  <g id="patch_1">
   <path d="M 0 345.6 
L 460.8 345.6 
L 460.8 0 
L 0 0 
z
" style="fill: #ffffff"/>
  </g>
  <g id="axes_1">
   <g id="patch_2">
    <path d="M 56.569319 298.771983 
L 443.15093 298.771983 
L 443.15093 12.96 
L 56.569319 12.96 
z
" style="fill: #ffffff"/>
   </g>
   <g id="PolyCollection_1">
    <defs>
     <path id="m048f5400b7" d="M 74.14121 -153.813111 
L 74.14121 -128.456483 
L 80.097784 -129.701263 
L 86.054357 -129.86585 
L 92.010931 -131.675332 
L 97.967504 -150.61057 
L 103.924077 -153.872439 
L 109.880651 -152.691474 
L 115.837224 -161.0218 
L 121.793797 -171.783501 
L 127.750371 -168.160687 
L 133.706944 -178.141579 
L 139.663517 -192.203311 
L 145.620091 -193.52675 
L 151.576664 -198.576717 
L 157.533237 -198.351487 
L 163.489811 -200.774396 
L 169.446384 -195.095637 
L 175.402957 -197.396646 
L 181.359531 -199.767182 
L 187.316104 -201.371134 
L 193.272678 -197.436684 
L 199.229251 -192.473246 
L 205.185824 -200.404317 
L 211.142398 -210.111151 
L 217.098971 -219.774223 
L 223.055544 -231.333797 
L 229.012118 -232.586314 
L 234.968691 -226.534042 
L 240.925264 -220.196622 
L 246.881838 -216.365893 
L 252.838411 -211.773459 
L 258.794984 -208.009271 
L 264.751558 -213.435629 
L 270.708131 -221.831336 
L 276.664704 -230.716209 
L 282.621278 -240.461151 
L 288.577851 -244.626546 
L 294.534425 -249.523526 
L 300.490998 -260.618604 
L 306.447571 -260.618577 
L 312.404145 -251.213548 
L 318.360718 -244.038061 
L 324.317291 -255.76514 
L 330.273865 -262.010898 
L 336.230438 -257.321371 
L 342.187011 -267.299717 
L 348.143585 -263.102359 
L 354.100158 -262.740485 
L 360.056731 -266.698755 
L 366.013305 -275.833136 
L 371.969878 -283.453879 
L 377.926452 -278.632499 
L 383.883025 -286.139608 
L 389.839598 -288.960119 
L 395.796172 -296.229286 
L 401.752745 -296.067093 
L 407.709318 -302.696633 
L 413.665892 -298.909583 
L 419.622465 -293.112117 
L 425.579038 -299.869295 
L 425.579038 -318.683486 
L 425.579038 -318.683486 
L 419.622465 -316.67482 
L 413.665892 -311.27575 
L 407.709318 -316.13384 
L 401.752745 -319.648546 
L 395.796172 -315.759484 
L 389.839598 -311.485789 
L 383.883025 -311.653031 
L 377.926452 -314.420604 
L 371.969878 -313.510212 
L 366.013305 -311.445866 
L 360.056731 -311.609159 
L 354.100158 -313.612455 
L 348.143585 -312.31816 
L 342.187011 -307.400139 
L 336.230438 -305.187464 
L 330.273865 -298.956258 
L 324.317291 -282.932664 
L 318.360718 -278.471925 
L 312.404145 -291.313217 
L 306.447571 -288.877417 
L 300.490998 -285.288788 
L 294.534425 -277.089581 
L 288.577851 -273.854999 
L 282.621278 -271.516417 
L 276.664704 -268.338594 
L 270.708131 -266.670335 
L 264.751558 -265.597022 
L 258.794984 -271.257007 
L 252.838411 -261.214078 
L 246.881838 -258.993184 
L 240.925264 -250.017167 
L 234.968691 -239.089497 
L 229.012118 -242.887798 
L 223.055544 -242.958085 
L 217.098971 -249.570798 
L 211.142398 -251.973906 
L 205.185824 -248.07921 
L 199.229251 -240.151618 
L 193.272678 -231.439978 
L 187.316104 -228.554209 
L 181.359531 -219.911475 
L 175.402957 -216.341488 
L 169.446384 -210.442585 
L 163.489811 -204.112261 
L 157.533237 -200.347605 
L 151.576664 -202.746094 
L 145.620091 -205.967649 
L 139.663517 -198.290405 
L 133.706944 -198.357607 
L 127.750371 -183.992615 
L 121.793797 -175.502324 
L 115.837224 -176.203527 
L 109.880651 -175.150226 
L 103.924077 -161.22578 
L 97.967504 -160.97098 
L 92.010931 -156.891286 
L 86.054357 -154.003977 
L 80.097784 -156.302671 
L 74.14121 -153.813111 
z
" style="stroke: #87ceeb; stroke-opacity: 0.2"/>
    </defs>
    <g clip-path="url(#p51cdee1926)">
     <use xlink:href="#m048f5400b7" x="0" y="345.6" style="fill: #87ceeb; fill-opacity: 0.2; stroke: #87ceeb; stroke-opacity: 0.2"/>
    </g>
   </g>
   <g id="PolyCollection_2">
    <defs>
     <path id="mfd8b02dc5d" d="M 74.14121 -252.934477 
L 74.14121 -60.838807 
L 80.097784 -59.870645 
L 86.054357 -59.819471 
L 92.010931 -60.879373 
L 97.967504 -71.248888 
L 103.924077 -118.326066 
L 109.880651 -86.016352 
L 115.837224 -90.804126 
L 121.793797 -98.480413 
L 127.750371 -112.519588 
L 133.706944 -127.231561 
L 139.663517 -146.013503 
L 145.620091 -144.986607 
L 151.576664 -143.083969 
L 157.533237 -146.193379 
L 163.489811 -155.800078 
L 169.446384 -155.552097 
L 175.402957 -163.348349 
L 181.359531 -164.495656 
L 187.316104 -175.083019 
L 193.272678 -182.366268 
L 199.229251 -184.844758 
L 205.185824 -193.185775 
L 211.142398 -200.222864 
L 217.098971 -204.828601 
L 223.055544 -207.913349 
L 229.012118 -214.039884 
L 234.968691 -211.03988 
L 240.925264 -214.672085 
L 246.881838 -218.945553 
L 252.838411 -225.877205 
L 258.794984 -231.908391 
L 264.751558 -238.779858 
L 270.708131 -247.660762 
L 276.664704 -248.550323 
L 282.621278 -252.141262 
L 288.577851 -246.808867 
L 294.534425 -252.538183 
L 300.490998 -248.817574 
L 306.447571 -247.528388 
L 312.404145 -254.238836 
L 318.360718 -248.727397 
L 324.317291 -256.54134 
L 330.273865 -259.428197 
L 336.230438 -261.094072 
L 342.187011 -262.572651 
L 348.143585 -263.779848 
L 354.100158 -267.921194 
L 360.056731 -267.67886 
L 366.013305 -263.585688 
L 371.969878 -267.329581 
L 377.926452 -267.827442 
L 383.883025 -273.817446 
L 389.839598 -264.311435 
L 395.796172 -264.947215 
L 401.752745 -267.4621 
L 407.709318 -268.782482 
L 413.665892 -257.259613 
L 419.622465 -257.838513 
L 425.579038 -258.227003 
L 425.579038 -272.599801 
L 425.579038 -272.599801 
L 419.622465 -286.551758 
L 413.665892 -295.196116 
L 407.709318 -296.032108 
L 401.752745 -291.935183 
L 395.796172 -288.041018 
L 389.839598 -283.457742 
L 383.883025 -278.269186 
L 377.926452 -272.871452 
L 371.969878 -276.363118 
L 366.013305 -270.016933 
L 360.056731 -275.506101 
L 354.100158 -287.921641 
L 348.143585 -284.694448 
L 342.187011 -283.731874 
L 336.230438 -275.745426 
L 330.273865 -276.724931 
L 324.317291 -271.022481 
L 318.360718 -272.507429 
L 312.404145 -277.011733 
L 306.447571 -274.086873 
L 300.490998 -269.491405 
L 294.534425 -264.788905 
L 288.577851 -263.225541 
L 282.621278 -258.280567 
L 276.664704 -264.394754 
L 270.708131 -260.360603 
L 264.751558 -272.93549 
L 258.794984 -274.305661 
L 252.838411 -269.123882 
L 246.881838 -261.605764 
L 240.925264 -253.800061 
L 234.968691 -245.830316 
L 229.012118 -238.288256 
L 223.055544 -233.110852 
L 217.098971 -231.454249 
L 211.142398 -228.569892 
L 205.185824 -227.165362 
L 199.229251 -230.735798 
L 193.272678 -227.172434 
L 187.316104 -230.400076 
L 181.359531 -237.898617 
L 175.402957 -239.299322 
L 169.446384 -247.981983 
L 163.489811 -245.820311 
L 157.533237 -240.405091 
L 151.576664 -233.694361 
L 145.620091 -228.447761 
L 139.663517 -226.164264 
L 133.706944 -231.572013 
L 127.750371 -227.787377 
L 121.793797 -220.489124 
L 115.837224 -212.264646 
L 109.880651 -207.482416 
L 103.924077 -206.731567 
L 97.967504 -213.561132 
L 92.010931 -218.482356 
L 86.054357 -231.489684 
L 80.097784 -245.327488 
L 74.14121 -252.934477 
z
" style="stroke: #ff0000; stroke-opacity: 0.2"/>
    </defs>
    <g clip-path="url(#p51cdee1926)">
     <use xlink:href="#mfd8b02dc5d" x="0" y="345.6" style="fill: #ff0000; fill-opacity: 0.2; stroke: #ff0000; stroke-opacity: 0.2"/>
    </g>
   </g>
   <g id="PolyCollection_3">
    <defs>
     <path id="mf77b01a976" d="M 74.14121 -248.324181 
L 74.14121 -133.066779 
L 80.097784 -124.783614 
L 86.054357 -116.059243 
L 92.010931 -106.773155 
L 97.967504 -111.355896 
L 103.924077 -115.772623 
L 109.880651 -132.888957 
L 115.837224 -135.951313 
L 121.793797 -138.67681 
L 127.750371 -154.456993 
L 133.706944 -172.220328 
L 139.663517 -180.422707 
L 145.620091 -185.37741 
L 151.576664 -183.680301 
L 157.533237 -197.714205 
L 163.489811 -198.387595 
L 169.446384 -192.047526 
L 175.402957 -188.433395 
L 181.359531 -197.895133 
L 187.316104 -200.568577 
L 193.272678 -213.162625 
L 199.229251 -206.549657 
L 205.185824 -199.693053 
L 211.142398 -214.84704 
L 217.098971 -211.091581 
L 223.055544 -217.046653 
L 229.012118 -228.09417 
L 234.968691 -224.402924 
L 240.925264 -235.655516 
L 246.881838 -229.949213 
L 252.838411 -224.870604 
L 258.794984 -231.676602 
L 264.751558 -242.636222 
L 270.708131 -243.178455 
L 276.664704 -252.534782 
L 282.621278 -247.475016 
L 288.577851 -244.356584 
L 294.534425 -252.06192 
L 300.490998 -240.132776 
L 306.447571 -227.341251 
L 312.404145 -216.463927 
L 318.360718 -207.797373 
L 324.317291 -203.29598 
L 330.273865 -210.108568 
L 336.230438 -230.430394 
L 342.187011 -204.584153 
L 348.143585 -198.069595 
L 354.100158 -204.273776 
L 360.056731 -212.838293 
L 366.013305 -226.377259 
L 371.969878 -236.736498 
L 377.926452 -227.02327 
L 383.883025 -230.380636 
L 389.839598 -228.973542 
L 395.796172 -222.158109 
L 401.752745 -217.429389 
L 407.709318 -211.361341 
L 413.665892 -217.455784 
L 419.622465 -229.810649 
L 425.579038 -217.478382 
L 425.579038 -277.600631 
L 425.579038 -277.600631 
L 419.622465 -270.392643 
L 413.665892 -268.181836 
L 407.709318 -267.787094 
L 401.752745 -264.874378 
L 395.796172 -259.512354 
L 389.839598 -257.286353 
L 383.883025 -252.316044 
L 377.926452 -251.289922 
L 371.969878 -250.136976 
L 366.013305 -261.377392 
L 360.056731 -263.439694 
L 354.100158 -273.285269 
L 348.143585 -273.12572 
L 342.187011 -280.939511 
L 336.230438 -277.94294 
L 330.273865 -272.296758 
L 324.317291 -272.980413 
L 318.360718 -269.000133 
L 312.404145 -260.15935 
L 306.447571 -257.476333 
L 300.490998 -253.859065 
L 294.534425 -254.733089 
L 288.577851 -266.351627 
L 282.621278 -271.808673 
L 276.664704 -271.482316 
L 270.708131 -266.557129 
L 264.751558 -264.575192 
L 258.794984 -277.030295 
L 252.838411 -270.321628 
L 246.881838 -263.353612 
L 240.925264 -254.996082 
L 234.968691 -245.993351 
L 229.012118 -240.007152 
L 223.055544 -236.699957 
L 217.098971 -229.393126 
L 211.142398 -225.723772 
L 205.185824 -218.105571 
L 199.229251 -221.275632 
L 193.272678 -232.17785 
L 187.316104 -223.914306 
L 181.359531 -227.987626 
L 175.402957 -240.099291 
L 169.446384 -246.680223 
L 163.489811 -225.861178 
L 157.533237 -243.367667 
L 151.576664 -256.430549 
L 145.620091 -245.466411 
L 139.663517 -235.426402 
L 133.706944 -242.379472 
L 127.750371 -230.818307 
L 121.793797 -221.62698 
L 115.837224 -211.679521 
L 109.880651 -217.217082 
L 103.924077 -216.791256 
L 97.967504 -205.676311 
L 92.010931 -209.332279 
L 86.054357 -218.758352 
L 80.097784 -229.72932 
L 74.14121 -248.324181 
z
" style="stroke: #800080; stroke-opacity: 0.2"/>
    </defs>
    <g clip-path="url(#p51cdee1926)">
     <use xlink:href="#mf77b01a976" x="0" y="345.6" style="fill: #800080; fill-opacity: 0.2; stroke: #800080; stroke-opacity: 0.2"/>
    </g>
   </g>
   <g id="PolyCollection_4">
    <defs>
     <path id="m101702a8bb" d="M 74.14121 -160.728555 
L 74.14121 -96.18441 
L 80.097784 -91.389702 
L 86.054357 -90.214999 
L 92.010931 -85.373964 
L 97.967504 -94.590935 
L 103.924077 -104.587282 
L 109.880651 -111.781766 
L 115.837224 -114.882925 
L 121.793797 -123.83955 
L 127.750371 -130.632915 
L 133.706944 -135.544246 
L 139.663517 -135.022396 
L 145.620091 -139.562874 
L 151.576664 -143.912648 
L 157.533237 -145.499378 
L 163.489811 -145.281596 
L 169.446384 -150.685952 
L 175.402957 -162.972181 
L 181.359531 -169.429316 
L 187.316104 -169.097335 
L 193.272678 -174.680132 
L 199.229251 -178.293411 
L 205.185824 -182.602703 
L 211.142398 -188.738 
L 217.098971 -181.816097 
L 223.055544 -177.264052 
L 229.012118 -172.317525 
L 234.968691 -170.21162 
L 240.925264 -186.958977 
L 246.881838 -191.340422 
L 252.838411 -191.611332 
L 258.794984 -189.993925 
L 264.751558 -191.125373 
L 270.708131 -189.57114 
L 276.664704 -193.42627 
L 282.621278 -198.322499 
L 288.577851 -195.132415 
L 294.534425 -198.251534 
L 300.490998 -195.7709 
L 306.447571 -202.606395 
L 312.404145 -200.264406 
L 318.360718 -197.12254 
L 324.317291 -193.589999 
L 330.273865 -189.91735 
L 336.230438 -186.122807 
L 342.187011 -200.20237 
L 348.143585 -196.069672 
L 354.100158 -194.472019 
L 360.056731 -191.883384 
L 366.013305 -188.832154 
L 371.969878 -207.953549 
L 377.926452 -220.393793 
L 383.883025 -212.837091 
L 389.839598 -205.263864 
L 395.796172 -202.470966 
L 401.752745 -197.843571 
L 407.709318 -213.795686 
L 413.665892 -210.892549 
L 419.622465 -206.968363 
L 425.579038 -219.736461 
L 425.579038 -279.987434 
L 425.579038 -279.987434 
L 419.622465 -275.303829 
L 413.665892 -276.518579 
L 407.709318 -268.331429 
L 401.752745 -263.743175 
L 395.796172 -264.669373 
L 389.839598 -260.682073 
L 383.883025 -276.850841 
L 377.926452 -275.372656 
L 371.969878 -273.44396 
L 366.013305 -272.375227 
L 360.056731 -281.020957 
L 354.100158 -272.81768 
L 348.143585 -268.440522 
L 342.187011 -262.261148 
L 336.230438 -249.876893 
L 330.273865 -253.094118 
L 324.317291 -242.325287 
L 318.360718 -226.96211 
L 312.404145 -220.325602 
L 306.447571 -221.970049 
L 300.490998 -209.554949 
L 294.534425 -216.335153 
L 288.577851 -204.895866 
L 282.621278 -202.799169 
L 276.664704 -213.715467 
L 270.708131 -205.788471 
L 264.751558 -202.647403 
L 258.794984 -213.044508 
L 252.838411 -213.866322 
L 246.881838 -216.524921 
L 240.925264 -219.580782 
L 234.968691 -212.070949 
L 229.012118 -203.89822 
L 223.055544 -214.482228 
L 217.098971 -198.403068 
L 211.142398 -204.721488 
L 205.185824 -213.132197 
L 199.229251 -224.177469 
L 193.272678 -211.154443 
L 187.316104 -200.089186 
L 181.359531 -181.859341 
L 175.402957 -175.927543 
L 169.446384 -177.739393 
L 163.489811 -185.103506 
L 157.533237 -197.242109 
L 151.576664 -200.631473 
L 145.620091 -204.527294 
L 139.663517 -193.160668 
L 133.706944 -173.895527 
L 127.750371 -173.337058 
L 121.793797 -155.7024 
L 115.837224 -154.262471 
L 109.880651 -150.770326 
L 103.924077 -148.134157 
L 97.967504 -145.333709 
L 92.010931 -147.396331 
L 86.054357 -146.781949 
L 80.097784 -148.142447 
L 74.14121 -160.728555 
z
" style="stroke: #008000; stroke-opacity: 0.2"/>
    </defs>
    <g clip-path="url(#p51cdee1926)">
     <use xlink:href="#m101702a8bb" x="0" y="345.6" style="fill: #008000; fill-opacity: 0.2; stroke: #008000; stroke-opacity: 0.2"/>
    </g>
   </g>
   <g id="matplotlib.axis_1">
    <g id="xtick_1">
     <g id="line2d_1">
      <defs>
       <path id="m30c94a61fc" d="M 0 0 
L 0 6 
" style="stroke: #000000; stroke-width: 1.25"/>
      </defs>
      <g>
       <use xlink:href="#m30c94a61fc" x="74.14121" y="298.771983" style="stroke: #000000; stroke-width: 1.25"/>
      </g>
     </g>
     <g id="text_1">
      <!-- $\mathdefault{0}$ -->
      <g transform="translate(71.401477 315.88233) scale(0.11 -0.11)">
       <defs>
        <path id="CMR17-30" d="M 2688 2025 
C 2688 2416 2682 3080 2413 3591 
C 2176 4039 1798 4198 1466 4198 
C 1158 4198 768 4058 525 3597 
C 269 3118 243 2524 243 2025 
C 243 1661 250 1106 448 619 
C 723 -39 1216 -128 1466 -128 
C 1760 -128 2208 -7 2470 600 
C 2662 1042 2688 1559 2688 2025 
z
M 1466 -26 
C 1056 -26 813 325 723 812 
C 653 1188 653 1738 653 2096 
C 653 2588 653 2997 736 3387 
C 858 3929 1216 4096 1466 4096 
C 1728 4096 2067 3923 2189 3400 
C 2272 3036 2278 2607 2278 2096 
C 2278 1680 2278 1169 2202 792 
C 2067 95 1690 -26 1466 -26 
z
" transform="scale(0.015625)"/>
       </defs>
       <use xlink:href="#CMR17-30" transform="scale(0.996264)"/>
      </g>
     </g>
    </g>
    <g id="xtick_2">
     <g id="line2d_2">
      <g>
       <use xlink:href="#m30c94a61fc" x="133.706944" y="298.771983" style="stroke: #000000; stroke-width: 1.25"/>
      </g>
     </g>
     <g id="text_2">
      <!-- $\mathdefault{50000}$ -->
      <g transform="translate(120.008276 315.88233) scale(0.11 -0.11)">
       <defs>
        <path id="CMR17-35" d="M 730 3692 
C 794 3666 1056 3584 1325 3584 
C 1920 3584 2246 3911 2432 4100 
C 2432 4157 2432 4192 2394 4192 
C 2387 4192 2374 4192 2323 4163 
C 2099 4058 1837 3973 1517 3973 
C 1325 3973 1037 3999 723 4139 
C 653 4171 640 4171 634 4171 
C 602 4171 595 4164 595 4037 
L 595 2203 
C 595 2089 595 2057 659 2057 
C 691 2057 704 2070 736 2114 
C 941 2401 1222 2522 1542 2522 
C 1766 2522 2246 2382 2246 1289 
C 2246 1085 2246 715 2054 421 
C 1894 159 1645 25 1370 25 
C 947 25 518 320 403 814 
C 429 807 480 795 506 795 
C 589 795 749 840 749 1038 
C 749 1210 627 1280 506 1280 
C 358 1280 262 1190 262 1011 
C 262 454 704 -128 1382 -128 
C 2042 -128 2669 440 2669 1264 
C 2669 2030 2170 2624 1549 2624 
C 1222 2624 947 2503 730 2274 
L 730 3692 
z
" transform="scale(0.015625)"/>
       </defs>
       <use xlink:href="#CMR17-35" transform="scale(0.996264)"/>
       <use xlink:href="#CMR17-30" transform="translate(45.690477 0) scale(0.996264)"/>
       <use xlink:href="#CMR17-30" transform="translate(91.380954 0) scale(0.996264)"/>
       <use xlink:href="#CMR17-30" transform="translate(137.071431 0) scale(0.996264)"/>
       <use xlink:href="#CMR17-30" transform="translate(182.761908 0) scale(0.996264)"/>
      </g>
     </g>
    </g>
    <g id="xtick_3">
     <g id="line2d_3">
      <g>
       <use xlink:href="#m30c94a61fc" x="193.272678" y="298.771983" style="stroke: #000000; stroke-width: 1.25"/>
      </g>
     </g>
     <g id="text_3">
      <!-- $\mathdefault{100000}$ -->
      <g transform="translate(176.834276 315.88233) scale(0.11 -0.11)">
       <defs>
        <path id="CMR17-31" d="M 1702 4058 
C 1702 4192 1696 4192 1606 4192 
C 1357 3916 979 3827 621 3827 
C 602 3827 570 3827 563 3808 
C 557 3795 557 3782 557 3648 
C 755 3648 1088 3686 1344 3839 
L 1344 461 
C 1344 236 1331 160 781 160 
L 589 160 
L 589 0 
C 896 0 1216 0 1523 0 
C 1830 0 2150 0 2458 0 
L 2458 160 
L 2266 160 
C 1715 160 1702 230 1702 458 
L 1702 4058 
z
" transform="scale(0.015625)"/>
       </defs>
       <use xlink:href="#CMR17-31" transform="scale(0.996264)"/>
       <use xlink:href="#CMR17-30" transform="translate(45.690477 0) scale(0.996264)"/>
       <use xlink:href="#CMR17-30" transform="translate(91.380954 0) scale(0.996264)"/>
       <use xlink:href="#CMR17-30" transform="translate(137.071431 0) scale(0.996264)"/>
       <use xlink:href="#CMR17-30" transform="translate(182.761908 0) scale(0.996264)"/>
       <use xlink:href="#CMR17-30" transform="translate(228.452386 0) scale(0.996264)"/>
      </g>
     </g>
    </g>
    <g id="xtick_4">
     <g id="line2d_4">
      <g>
       <use xlink:href="#m30c94a61fc" x="252.838411" y="298.771983" style="stroke: #000000; stroke-width: 1.25"/>
      </g>
     </g>
     <g id="text_4">
      <!-- $\mathdefault{150000}$ -->
      <g transform="translate(236.400009 315.88233) scale(0.11 -0.11)">
       <use xlink:href="#CMR17-31" transform="scale(0.996264)"/>
       <use xlink:href="#CMR17-35" transform="translate(45.690477 0) scale(0.996264)"/>
       <use xlink:href="#CMR17-30" transform="translate(91.380954 0) scale(0.996264)"/>
       <use xlink:href="#CMR17-30" transform="translate(137.071431 0) scale(0.996264)"/>
       <use xlink:href="#CMR17-30" transform="translate(182.761908 0) scale(0.996264)"/>
       <use xlink:href="#CMR17-30" transform="translate(228.452386 0) scale(0.996264)"/>
      </g>
     </g>
    </g>
    <g id="xtick_5">
     <g id="line2d_5">
      <g>
       <use xlink:href="#m30c94a61fc" x="312.404145" y="298.771983" style="stroke: #000000; stroke-width: 1.25"/>
      </g>
     </g>
     <g id="text_5">
      <!-- $\mathdefault{200000}$ -->
      <g transform="translate(295.965743 315.88233) scale(0.11 -0.11)">
       <defs>
        <path id="CMR17-32" d="M 2669 989 
L 2554 989 
C 2490 536 2438 459 2413 420 
C 2381 369 1920 369 1830 369 
L 602 369 
C 832 619 1280 1072 1824 1597 
C 2214 1967 2669 2402 2669 3035 
C 2669 3790 2067 4224 1395 4224 
C 691 4224 262 3604 262 3030 
C 262 2780 448 2748 525 2748 
C 589 2748 781 2787 781 3010 
C 781 3207 614 3264 525 3264 
C 486 3264 448 3258 422 3245 
C 544 3790 915 4058 1306 4058 
C 1862 4058 2227 3617 2227 3035 
C 2227 2479 1901 2000 1536 1584 
L 262 146 
L 262 0 
L 2515 0 
L 2669 989 
z
" transform="scale(0.015625)"/>
       </defs>
       <use xlink:href="#CMR17-32" transform="scale(0.996264)"/>
       <use xlink:href="#CMR17-30" transform="translate(45.690477 0) scale(0.996264)"/>
       <use xlink:href="#CMR17-30" transform="translate(91.380954 0) scale(0.996264)"/>
       <use xlink:href="#CMR17-30" transform="translate(137.071431 0) scale(0.996264)"/>
       <use xlink:href="#CMR17-30" transform="translate(182.761908 0) scale(0.996264)"/>
       <use xlink:href="#CMR17-30" transform="translate(228.452386 0) scale(0.996264)"/>
      </g>
     </g>
    </g>
    <g id="xtick_6">
     <g id="line2d_6">
      <g>
       <use xlink:href="#m30c94a61fc" x="371.969878" y="298.771983" style="stroke: #000000; stroke-width: 1.25"/>
      </g>
     </g>
     <g id="text_6">
      <!-- $\mathdefault{250000}$ -->
      <g transform="translate(355.531476 315.88233) scale(0.11 -0.11)">
       <use xlink:href="#CMR17-32" transform="scale(0.996264)"/>
       <use xlink:href="#CMR17-35" transform="translate(45.690477 0) scale(0.996264)"/>
       <use xlink:href="#CMR17-30" transform="translate(91.380954 0) scale(0.996264)"/>
       <use xlink:href="#CMR17-30" transform="translate(137.071431 0) scale(0.996264)"/>
       <use xlink:href="#CMR17-30" transform="translate(182.761908 0) scale(0.996264)"/>
       <use xlink:href="#CMR17-30" transform="translate(228.452386 0) scale(0.996264)"/>
      </g>
     </g>
    </g>
    <g id="xtick_7">
     <g id="line2d_7">
      <g>
       <use xlink:href="#m30c94a61fc" x="431.535612" y="298.771983" style="stroke: #000000; stroke-width: 1.25"/>
      </g>
     </g>
     <g id="text_7">
      <!-- $\mathdefault{300000}$ -->
      <g transform="translate(415.09721 315.88233) scale(0.11 -0.11)">
       <defs>
        <path id="CMR17-33" d="M 1414 2157 
C 1984 2157 2234 1662 2234 1090 
C 2234 320 1824 25 1453 25 
C 1114 25 563 194 390 693 
C 422 680 454 680 486 680 
C 640 680 755 782 755 948 
C 755 1133 614 1216 486 1216 
C 378 1216 211 1165 211 926 
C 211 335 787 -128 1466 -128 
C 2176 -128 2720 430 2720 1085 
C 2720 1707 2208 2157 1600 2227 
C 2086 2328 2554 2756 2554 3329 
C 2554 3820 2048 4179 1472 4179 
C 890 4179 378 3829 378 3329 
C 378 3110 544 3072 627 3072 
C 762 3072 877 3155 877 3321 
C 877 3486 762 3569 627 3569 
C 602 3569 570 3569 544 3557 
C 730 3959 1235 4032 1459 4032 
C 1683 4032 2106 3925 2106 3320 
C 2106 3143 2080 2828 1862 2550 
C 1670 2304 1453 2304 1242 2284 
C 1210 2284 1062 2269 1037 2269 
C 992 2263 966 2257 966 2208 
C 966 2163 973 2157 1101 2157 
L 1414 2157 
z
" transform="scale(0.015625)"/>
       </defs>
       <use xlink:href="#CMR17-33" transform="scale(0.996264)"/>
       <use xlink:href="#CMR17-30" transform="translate(45.690477 0) scale(0.996264)"/>
       <use xlink:href="#CMR17-30" transform="translate(91.380954 0) scale(0.996264)"/>
       <use xlink:href="#CMR17-30" transform="translate(137.071431 0) scale(0.996264)"/>
       <use xlink:href="#CMR17-30" transform="translate(182.761908 0) scale(0.996264)"/>
       <use xlink:href="#CMR17-30" transform="translate(228.452386 0) scale(0.996264)"/>
      </g>
     </g>
    </g>
    <g id="text_8">
     <!-- step -->
     <g transform="translate(239.422292 330.315404) scale(0.12 -0.12)">
      <defs>
       <path id="CMR17-73" d="M 1978 2697 
C 1978 2813 1971 2819 1933 2819 
C 1907 2819 1901 2813 1824 2717 
C 1805 2691 1747 2626 1728 2601 
C 1523 2819 1235 2819 1126 2819 
C 416 2819 160 2447 160 2076 
C 160 1498 813 1365 998 1325 
C 1402 1243 1542 1217 1677 1101 
C 1760 1025 1901 884 1901 654 
C 1901 384 1747 38 1158 38 
C 602 38 403 460 288 1021 
C 269 1110 269 1117 218 1117 
C 166 1117 160 1110 160 983 
L 160 63 
C 160 -51 166 -58 205 -58 
C 237 -58 243 -51 275 0 
C 314 57 410 211 448 276 
C 576 103 800 -64 1158 -64 
C 1792 -64 2131 283 2131 784 
C 2131 1112 1958 1285 1875 1362 
C 1683 1561 1459 1606 1190 1657 
C 838 1735 390 1825 390 2217 
C 390 2383 480 2737 1126 2737 
C 1811 2737 1850 2094 1862 1888 
C 1869 1856 1901 1849 1920 1849 
C 1978 1849 1978 1869 1978 1978 
L 1978 2697 
z
" transform="scale(0.015625)"/>
       <path id="CMR17-74" d="M 966 2560 
L 1862 2560 
L 1862 2725 
L 966 2725 
L 966 3904 
L 851 3904 
C 838 3245 614 2668 70 2668 
L 70 2560 
L 627 2560 
L 627 771 
C 627 650 627 -64 1370 -64 
C 1747 -64 1965 306 1965 777 
L 1965 1140 
L 1850 1140 
L 1850 783 
C 1850 344 1677 51 1408 51 
C 1222 51 966 178 966 758 
L 966 2560 
z
" transform="scale(0.015625)"/>
       <path id="CMR17-65" d="M 2438 1472 
C 2464 1498 2464 1511 2464 1576 
C 2464 2238 2118 2816 1389 2816 
C 710 2816 173 2169 173 1383 
C 173 551 781 -64 1459 -64 
C 2176 -64 2458 607 2458 740 
C 2458 784 2419 784 2406 784 
C 2362 784 2355 771 2330 696 
C 2189 265 1837 51 1504 51 
C 1229 51 954 203 781 480 
C 582 803 582 1176 582 1472 
L 2438 1472 
z
M 589 1568 
C 634 2505 1126 2714 1382 2714 
C 1818 2714 2112 2297 2118 1568 
L 589 1568 
z
" transform="scale(0.015625)"/>
       <path id="CMR17-70" d="M 1408 -1063 
C 998 -1063 973 -1037 973 -789 
L 973 402 
C 1158 134 1427 -38 1766 -38 
C 2406 -38 3053 523 3053 1388 
C 3053 2191 2496 2802 1837 2802 
C 1453 2802 1139 2592 960 2338 
L 960 2802 
L 198 2732 
L 198 2567 
C 576 2567 634 2528 634 2223 
L 634 -789 
C 634 -1031 608 -1063 198 -1063 
L 198 -1228 
C 352 -1216 634 -1216 800 -1216 
C 966 -1216 1254 -1216 1408 -1228 
L 1408 -1063 
z
M 973 2012 
C 973 2102 973 2235 1222 2471 
C 1254 2497 1472 2688 1792 2688 
C 2259 2688 2643 2108 2643 1382 
C 2643 656 2234 64 1728 64 
C 1498 64 1248 172 1056 472 
C 973 612 973 650 973 752 
L 973 2012 
z
" transform="scale(0.015625)"/>
      </defs>
      <use xlink:href="#CMR17-73" transform="scale(0.996264)"/>
      <use xlink:href="#CMR17-74" transform="translate(35.801338 0) scale(0.996264)"/>
      <use xlink:href="#CMR17-65" transform="translate(71.082105 0) scale(0.996264)"/>
      <use xlink:href="#CMR17-70" transform="translate(111.567766 0) scale(0.996264)"/>
     </g>
    </g>
   </g>
   <g id="matplotlib.axis_2">
    <g id="ytick_1">
     <g id="line2d_8">
      <path d="M 56.569319 265.551626 
L 443.15093 265.551626 
" clip-path="url(#p51cdee1926)" style="fill: none; stroke-dasharray: 1,1.65; stroke-dashoffset: 0; stroke: #000000"/>
     </g>
     <g id="line2d_9">
      <defs>
       <path id="m1a47f94a11" d="M 0 0 
L -6 0 
" style="stroke: #000000; stroke-width: 1.25"/>
      </defs>
      <g>
       <use xlink:href="#m1a47f94a11" x="56.569319" y="265.551626" style="stroke: #000000; stroke-width: 1.25"/>
      </g>
     </g>
     <g id="text_9">
      <!-- $\mathdefault{0.40}$ -->
      <g transform="translate(27.586776 269.356799) scale(0.11 -0.11)">
       <defs>
        <path id="CMMI12-3a" d="M 1178 307 
C 1178 492 1024 619 870 619 
C 685 619 557 466 557 313 
C 557 128 710 0 864 0 
C 1050 0 1178 153 1178 307 
z
" transform="scale(0.015625)"/>
        <path id="CMR17-34" d="M 2150 4122 
C 2150 4256 2144 4256 2029 4256 
L 128 1254 
L 128 1088 
L 1779 1088 
L 1779 457 
C 1779 224 1766 160 1318 160 
L 1197 160 
L 1197 0 
C 1402 0 1747 0 1965 0 
C 2182 0 2528 0 2733 0 
L 2733 160 
L 2611 160 
C 2163 160 2150 224 2150 457 
L 2150 1088 
L 2803 1088 
L 2803 1254 
L 2150 1254 
L 2150 4122 
z
M 1798 3703 
L 1798 1254 
L 256 1254 
L 1798 3703 
z
" transform="scale(0.015625)"/>
       </defs>
       <use xlink:href="#CMR17-30" transform="scale(0.996264)"/>
       <use xlink:href="#CMMI12-3a" transform="translate(45.690477 0) scale(0.996264)"/>
       <use xlink:href="#CMR17-34" transform="translate(72.787654 0) scale(0.996264)"/>
       <use xlink:href="#CMR17-30" transform="translate(118.478131 0) scale(0.996264)"/>
      </g>
     </g>
    </g>
    <g id="ytick_2">
     <g id="line2d_10">
      <path d="M 56.569319 242.500146 
L 443.15093 242.500146 
" clip-path="url(#p51cdee1926)" style="fill: none; stroke-dasharray: 1,1.65; stroke-dashoffset: 0; stroke: #000000"/>
     </g>
     <g id="line2d_11">
      <g>
       <use xlink:href="#m1a47f94a11" x="56.569319" y="242.500146" style="stroke: #000000; stroke-width: 1.25"/>
      </g>
     </g>
     <g id="text_10">
      <!-- $\mathdefault{0.45}$ -->
      <g transform="translate(27.586776 246.305319) scale(0.11 -0.11)">
       <use xlink:href="#CMR17-30" transform="scale(0.996264)"/>
       <use xlink:href="#CMMI12-3a" transform="translate(45.690477 0) scale(0.996264)"/>
       <use xlink:href="#CMR17-34" transform="translate(72.787654 0) scale(0.996264)"/>
       <use xlink:href="#CMR17-35" transform="translate(118.478131 0) scale(0.996264)"/>
      </g>
     </g>
    </g>
    <g id="ytick_3">
     <g id="line2d_12">
      <path d="M 56.569319 219.448665 
L 443.15093 219.448665 
" clip-path="url(#p51cdee1926)" style="fill: none; stroke-dasharray: 1,1.65; stroke-dashoffset: 0; stroke: #000000"/>
     </g>
     <g id="line2d_13">
      <g>
       <use xlink:href="#m1a47f94a11" x="56.569319" y="219.448665" style="stroke: #000000; stroke-width: 1.25"/>
      </g>
     </g>
     <g id="text_11">
      <!-- $\mathdefault{0.50}$ -->
      <g transform="translate(27.586776 223.253839) scale(0.11 -0.11)">
       <use xlink:href="#CMR17-30" transform="scale(0.996264)"/>
       <use xlink:href="#CMMI12-3a" transform="translate(45.690477 0) scale(0.996264)"/>
       <use xlink:href="#CMR17-35" transform="translate(72.787654 0) scale(0.996264)"/>
       <use xlink:href="#CMR17-30" transform="translate(118.478131 0) scale(0.996264)"/>
      </g>
     </g>
    </g>
    <g id="ytick_4">
     <g id="line2d_14">
      <path d="M 56.569319 196.397185 
L 443.15093 196.397185 
" clip-path="url(#p51cdee1926)" style="fill: none; stroke-dasharray: 1,1.65; stroke-dashoffset: 0; stroke: #000000"/>
     </g>
     <g id="line2d_15">
      <g>
       <use xlink:href="#m1a47f94a11" x="56.569319" y="196.397185" style="stroke: #000000; stroke-width: 1.25"/>
      </g>
     </g>
     <g id="text_12">
      <!-- $\mathdefault{0.55}$ -->
      <g transform="translate(27.586776 200.202358) scale(0.11 -0.11)">
       <use xlink:href="#CMR17-30" transform="scale(0.996264)"/>
       <use xlink:href="#CMMI12-3a" transform="translate(45.690477 0) scale(0.996264)"/>
       <use xlink:href="#CMR17-35" transform="translate(72.787654 0) scale(0.996264)"/>
       <use xlink:href="#CMR17-35" transform="translate(118.478131 0) scale(0.996264)"/>
      </g>
     </g>
    </g>
    <g id="ytick_5">
     <g id="line2d_16">
      <path d="M 56.569319 173.345705 
L 443.15093 173.345705 
" clip-path="url(#p51cdee1926)" style="fill: none; stroke-dasharray: 1,1.65; stroke-dashoffset: 0; stroke: #000000"/>
     </g>
     <g id="line2d_17">
      <g>
       <use xlink:href="#m1a47f94a11" x="56.569319" y="173.345705" style="stroke: #000000; stroke-width: 1.25"/>
      </g>
     </g>
     <g id="text_13">
      <!-- $\mathdefault{0.60}$ -->
      <g transform="translate(27.586776 177.150878) scale(0.11 -0.11)">
       <defs>
        <path id="CMR17-36" d="M 678 2176 
C 678 3690 1395 4032 1811 4032 
C 1946 4032 2272 4009 2400 3776 
C 2298 3776 2106 3776 2106 3553 
C 2106 3381 2246 3323 2336 3323 
C 2394 3323 2566 3348 2566 3560 
C 2566 3954 2246 4179 1805 4179 
C 1043 4179 243 3390 243 1984 
C 243 253 966 -128 1478 -128 
C 2099 -128 2688 427 2688 1283 
C 2688 2081 2170 2662 1517 2662 
C 1126 2662 838 2407 678 1960 
L 678 2176 
z
M 1478 25 
C 691 25 691 1200 691 1436 
C 691 1896 909 2560 1504 2560 
C 1613 2560 1926 2560 2138 2120 
C 2253 1870 2253 1609 2253 1289 
C 2253 944 2253 690 2118 434 
C 1978 171 1773 25 1478 25 
z
" transform="scale(0.015625)"/>
       </defs>
       <use xlink:href="#CMR17-30" transform="scale(0.996264)"/>
       <use xlink:href="#CMMI12-3a" transform="translate(45.690477 0) scale(0.996264)"/>
       <use xlink:href="#CMR17-36" transform="translate(72.787654 0) scale(0.996264)"/>
       <use xlink:href="#CMR17-30" transform="translate(118.478131 0) scale(0.996264)"/>
      </g>
     </g>
    </g>
    <g id="ytick_6">
     <g id="line2d_18">
      <path d="M 56.569319 150.294224 
L 443.15093 150.294224 
" clip-path="url(#p51cdee1926)" style="fill: none; stroke-dasharray: 1,1.65; stroke-dashoffset: 0; stroke: #000000"/>
     </g>
     <g id="line2d_19">
      <g>
       <use xlink:href="#m1a47f94a11" x="56.569319" y="150.294224" style="stroke: #000000; stroke-width: 1.25"/>
      </g>
     </g>
     <g id="text_14">
      <!-- $\mathdefault{0.65}$ -->
      <g transform="translate(27.586776 154.099398) scale(0.11 -0.11)">
       <use xlink:href="#CMR17-30" transform="scale(0.996264)"/>
       <use xlink:href="#CMMI12-3a" transform="translate(45.690477 0) scale(0.996264)"/>
       <use xlink:href="#CMR17-36" transform="translate(72.787654 0) scale(0.996264)"/>
       <use xlink:href="#CMR17-35" transform="translate(118.478131 0) scale(0.996264)"/>
      </g>
     </g>
    </g>
    <g id="ytick_7">
     <g id="line2d_20">
      <path d="M 56.569319 127.242744 
L 443.15093 127.242744 
" clip-path="url(#p51cdee1926)" style="fill: none; stroke-dasharray: 1,1.65; stroke-dashoffset: 0; stroke: #000000"/>
     </g>
     <g id="line2d_21">
      <g>
       <use xlink:href="#m1a47f94a11" x="56.569319" y="127.242744" style="stroke: #000000; stroke-width: 1.25"/>
      </g>
     </g>
     <g id="text_15">
      <!-- $\mathdefault{0.70}$ -->
      <g transform="translate(27.586776 131.047917) scale(0.11 -0.11)">
       <defs>
        <path id="CMR17-37" d="M 2886 3941 
L 2886 4081 
L 1382 4081 
C 634 4081 621 4165 595 4288 
L 480 4288 
L 294 3094 
L 410 3094 
C 429 3215 474 3540 550 3661 
C 589 3712 1062 3712 1171 3712 
L 2579 3712 
L 1869 2661 
C 1395 1954 1069 999 1069 165 
C 1069 89 1069 -128 1299 -128 
C 1530 -128 1530 89 1530 171 
L 1530 465 
C 1530 1508 1709 2196 2003 2636 
L 2886 3941 
z
" transform="scale(0.015625)"/>
       </defs>
       <use xlink:href="#CMR17-30" transform="scale(0.996264)"/>
       <use xlink:href="#CMMI12-3a" transform="translate(45.690477 0) scale(0.996264)"/>
       <use xlink:href="#CMR17-37" transform="translate(72.787654 0) scale(0.996264)"/>
       <use xlink:href="#CMR17-30" transform="translate(118.478131 0) scale(0.996264)"/>
      </g>
     </g>
    </g>
    <g id="ytick_8">
     <g id="line2d_22">
      <path d="M 56.569319 104.191264 
L 443.15093 104.191264 
" clip-path="url(#p51cdee1926)" style="fill: none; stroke-dasharray: 1,1.65; stroke-dashoffset: 0; stroke: #000000"/>
     </g>
     <g id="line2d_23">
      <g>
       <use xlink:href="#m1a47f94a11" x="56.569319" y="104.191264" style="stroke: #000000; stroke-width: 1.25"/>
      </g>
     </g>
     <g id="text_16">
      <!-- $\mathdefault{0.75}$ -->
      <g transform="translate(27.586776 107.996437) scale(0.11 -0.11)">
       <use xlink:href="#CMR17-30" transform="scale(0.996264)"/>
       <use xlink:href="#CMMI12-3a" transform="translate(45.690477 0) scale(0.996264)"/>
       <use xlink:href="#CMR17-37" transform="translate(72.787654 0) scale(0.996264)"/>
       <use xlink:href="#CMR17-35" transform="translate(118.478131 0) scale(0.996264)"/>
      </g>
     </g>
    </g>
    <g id="ytick_9">
     <g id="line2d_24">
      <path d="M 56.569319 81.139783 
L 443.15093 81.139783 
" clip-path="url(#p51cdee1926)" style="fill: none; stroke-dasharray: 1,1.65; stroke-dashoffset: 0; stroke: #000000"/>
     </g>
     <g id="line2d_25">
      <g>
       <use xlink:href="#m1a47f94a11" x="56.569319" y="81.139783" style="stroke: #000000; stroke-width: 1.25"/>
      </g>
     </g>
     <g id="text_17">
      <!-- $\mathdefault{0.80}$ -->
      <g transform="translate(27.586776 84.944957) scale(0.11 -0.11)">
       <defs>
        <path id="CMR17-38" d="M 1741 2264 
C 2144 2467 2554 2773 2554 3263 
C 2554 3841 1990 4179 1472 4179 
C 890 4179 378 3759 378 3180 
C 378 3021 416 2747 666 2505 
C 730 2442 998 2251 1171 2130 
C 883 1983 211 1634 211 934 
C 211 279 838 -128 1459 -128 
C 2144 -128 2720 362 2720 1010 
C 2720 1590 2330 1857 2074 2029 
L 1741 2264 
z
M 902 2822 
C 851 2854 595 3051 595 3351 
C 595 3739 998 4032 1459 4032 
C 1965 4032 2336 3676 2336 3262 
C 2336 2669 1670 2331 1638 2331 
C 1632 2331 1626 2331 1574 2370 
L 902 2822 
z
M 2080 1519 
C 2176 1449 2483 1240 2483 851 
C 2483 381 2010 25 1472 25 
C 890 25 448 438 448 940 
C 448 1443 838 1862 1280 2060 
L 2080 1519 
z
" transform="scale(0.015625)"/>
       </defs>
       <use xlink:href="#CMR17-30" transform="scale(0.996264)"/>
       <use xlink:href="#CMMI12-3a" transform="translate(45.690477 0) scale(0.996264)"/>
       <use xlink:href="#CMR17-38" transform="translate(72.787654 0) scale(0.996264)"/>
       <use xlink:href="#CMR17-30" transform="translate(118.478131 0) scale(0.996264)"/>
      </g>
     </g>
    </g>
    <g id="ytick_10">
     <g id="line2d_26">
      <path d="M 56.569319 58.088303 
L 443.15093 58.088303 
" clip-path="url(#p51cdee1926)" style="fill: none; stroke-dasharray: 1,1.65; stroke-dashoffset: 0; stroke: #000000"/>
     </g>
     <g id="line2d_27">
      <g>
       <use xlink:href="#m1a47f94a11" x="56.569319" y="58.088303" style="stroke: #000000; stroke-width: 1.25"/>
      </g>
     </g>
     <g id="text_18">
      <!-- $\mathdefault{0.85}$ -->
      <g transform="translate(27.586776 61.893476) scale(0.11 -0.11)">
       <use xlink:href="#CMR17-30" transform="scale(0.996264)"/>
       <use xlink:href="#CMMI12-3a" transform="translate(45.690477 0) scale(0.996264)"/>
       <use xlink:href="#CMR17-38" transform="translate(72.787654 0) scale(0.996264)"/>
       <use xlink:href="#CMR17-35" transform="translate(118.478131 0) scale(0.996264)"/>
      </g>
     </g>
    </g>
    <g id="ytick_11">
     <g id="line2d_28">
      <path d="M 56.569319 35.036823 
L 443.15093 35.036823 
" clip-path="url(#p51cdee1926)" style="fill: none; stroke-dasharray: 1,1.65; stroke-dashoffset: 0; stroke: #000000"/>
     </g>
     <g id="line2d_29">
      <g>
       <use xlink:href="#m1a47f94a11" x="56.569319" y="35.036823" style="stroke: #000000; stroke-width: 1.25"/>
      </g>
     </g>
     <g id="text_19">
      <!-- $\mathdefault{0.90}$ -->
      <g transform="translate(27.586776 38.841996) scale(0.11 -0.11)">
       <defs>
        <path id="CMR17-39" d="M 2253 1864 
C 2253 464 1670 31 1190 31 
C 1043 31 685 31 538 294 
C 704 268 826 357 826 518 
C 826 692 685 749 595 749 
C 538 749 365 723 365 506 
C 365 71 742 -128 1203 -128 
C 1939 -128 2688 674 2688 2073 
C 2688 3817 1971 4179 1485 4179 
C 851 4179 243 3628 243 2778 
C 243 1991 762 1408 1414 1408 
C 1952 1408 2189 1903 2253 2112 
L 2253 1864 
z
M 1427 1510 
C 1254 1510 1011 1542 813 1922 
C 678 2169 678 2461 678 2771 
C 678 3146 678 3405 858 3684 
C 947 3817 1114 4032 1485 4032 
C 2240 4032 2240 2885 2240 2632 
C 2240 2182 2035 1510 1427 1510 
z
" transform="scale(0.015625)"/>
       </defs>
       <use xlink:href="#CMR17-30" transform="scale(0.996264)"/>
       <use xlink:href="#CMMI12-3a" transform="translate(45.690477 0) scale(0.996264)"/>
       <use xlink:href="#CMR17-39" transform="translate(72.787654 0) scale(0.996264)"/>
       <use xlink:href="#CMR17-30" transform="translate(118.478131 0) scale(0.996264)"/>
      </g>
     </g>
    </g>
    <g id="text_20">
     <!-- ADD-S -->
     <g transform="translate(21.26218 174.396318) rotate(-90) scale(0.12 -0.12)">
      <defs>
       <path id="CMR17-41" d="M 2323 4378 
C 2291 4461 2278 4480 2214 4480 
C 2150 4480 2138 4461 2106 4378 
L 749 566 
C 627 223 371 153 147 153 
L 147 -13 
C 262 0 518 0 640 0 
C 800 0 1056 0 1210 -13 
L 1210 153 
C 909 153 864 361 864 439 
C 864 497 877 530 890 569 
L 1229 1536 
L 2906 1536 
L 3290 442 
C 3322 365 3322 352 3322 327 
C 3322 153 3046 153 2925 153 
L 2925 0 
C 3110 0 3443 0 3642 0 
C 3808 0 4128 0 4282 -13 
L 4282 153 
C 3942 153 3827 153 3744 387 
L 2323 4378 
z
M 2067 3893 
L 2848 1702 
L 1286 1702 
L 2067 3893 
z
" transform="scale(0.015625)"/>
       <path id="CMR17-44" d="M 333 4352 
L 333 4186 
C 774 4186 845 4186 845 3900 
L 845 452 
C 845 166 774 166 333 166 
L 333 0 
L 2368 0 
C 3398 0 4224 943 4224 2141 
C 4224 3346 3411 4352 2368 4352 
L 333 4352 
z
M 1523 166 
C 1267 166 1254 197 1254 414 
L 1254 3938 
C 1254 4155 1267 4186 1523 4186 
L 2240 4186 
C 2771 4186 3750 3874 3750 2141 
C 3750 1242 3488 879 3366 707 
C 3213 510 2848 166 2240 166 
L 1523 166 
z
" transform="scale(0.015625)"/>
       <path id="CMR17-2d" d="M 1632 1216 
L 1632 1496 
L 26 1496 
L 26 1216 
L 1632 1216 
z
" transform="scale(0.015625)"/>
       <path id="CMR17-53" d="M 2803 4290 
C 2803 4404 2797 4411 2758 4411 
C 2720 4411 2707 4385 2682 4328 
L 2490 3907 
C 2246 4257 1875 4416 1472 4416 
C 819 4416 294 3901 294 3253 
C 294 3056 339 2776 557 2510 
C 794 2218 1018 2167 1530 2033 
C 1722 1982 2042 1899 2106 1874 
C 2470 1722 2662 1341 2662 985 
C 2662 527 2336 38 1779 38 
C 1094 38 454 419 410 1311 
C 403 1413 397 1419 352 1419 
C 301 1419 294 1413 294 1285 
L 294 -1 
C 294 -115 301 -122 339 -122 
C 384 -122 397 -90 486 108 
C 493 127 493 140 614 381 
C 934 -39 1472 -128 1779 -128 
C 2477 -128 2970 451 2970 1124 
C 2970 1454 2848 1708 2778 1823 
C 2509 2230 2221 2306 1914 2382 
C 1869 2402 1856 2402 1498 2490 
C 1152 2579 1005 2624 845 2796 
C 666 2992 602 3196 602 3399 
C 602 3812 934 4263 1478 4263 
C 2157 4263 2579 3786 2675 2993 
C 2694 2878 2701 2872 2746 2872 
C 2803 2872 2803 2891 2803 2999 
L 2803 4290 
z
" transform="scale(0.015625)"/>
      </defs>
      <use xlink:href="#CMR17-41" transform="scale(0.996264)"/>
      <use xlink:href="#CMR17-44" transform="translate(69.07243 0) scale(0.996264)"/>
      <use xlink:href="#CMR17-44" transform="translate(139.465986 0) scale(0.996264)"/>
      <use xlink:href="#CMR17-2d" transform="translate(209.859542 0) scale(0.996264)"/>
      <use xlink:href="#CMR17-53" transform="translate(239.935508 0) scale(0.996264)"/>
     </g>
    </g>
   </g>
   <g id="line2d_30">
    <path d="M 74.14121 208.691308 
L 80.097784 207.031601 
L 86.054357 207.688107 
L 92.010931 205.51935 
L 97.967504 191.53596 
L 103.924077 189.276447 
L 109.880651 185.422275 
L 115.837224 179.517624 
L 121.793797 172.576891 
L 127.750371 172.162003 
L 133.706944 160.719745 
L 139.663517 151.367658 
L 145.620091 143.779318 
L 151.576664 145.633491 
L 157.533237 146.583141 
L 163.489811 143.712982 
L 169.446384 145.388714 
L 175.402957 141.888407 
L 181.359531 139.118054 
L 187.316104 135.167841 
L 193.272678 136.828885 
L 199.229251 137.233963 
L 205.185824 129.304052 
L 211.142398 121.534597 
L 217.098971 115.893585 
L 223.055544 110.391441 
L 229.012118 109.579858 
L 234.968691 114.880806 
L 240.925264 115.463197 
L 246.881838 115.02501 
L 252.838411 117.346334 
L 258.794984 116.50815 
L 264.751558 114.77724 
L 270.708131 108.822331 
L 276.664704 102.342996 
L 282.621278 94.787094 
L 288.577851 91.230636 
L 294.534425 86.887789 
L 300.490998 76.758001 
L 306.447571 75.56181 
L 312.404145 81.019895 
L 318.360718 84.557562 
L 324.317291 76.251098 
L 330.273865 71.273982 
L 336.230438 72.323264 
L 342.187011 64.933476 
L 348.143585 66.092374 
L 354.100158 65.902192 
L 360.056731 63.93111 
L 366.013305 57.895954 
L 371.969878 52.127344 
L 377.926452 55.038132 
L 383.883025 50.955918 
L 389.839598 49.131324 
L 395.796172 42.860648 
L 401.752745 41.672422 
L 407.709318 38.424298 
L 413.665892 42.568361 
L 419.622465 44.633649 
L 425.579038 39.459308 
" clip-path="url(#p51cdee1926)" style="fill: none; stroke: #87ceeb; stroke-width: 4; stroke-linecap: square"/>
   </g>
   <g id="line2d_31">
    <path d="M 74.14121 184.35919 
L 80.097784 186.479926 
L 86.054357 190.945459 
L 92.010931 192.842254 
L 97.967504 188.667159 
L 103.924077 184.591205 
L 109.880651 180.743778 
L 115.837224 175.121883 
L 121.793797 166.963163 
L 127.750371 157.832919 
L 133.706944 154.273001 
L 139.663517 147.66796 
L 145.620091 148.065684 
L 151.576664 149.30357 
L 157.533237 146.834014 
L 163.489811 143.941277 
L 169.446384 140.617342 
L 175.402957 139.160062 
L 181.359531 141.337762 
L 187.316104 137.741011 
L 193.272678 133.453702 
L 199.229251 134.531371 
L 205.185824 131.362783 
L 211.142398 127.603412 
L 217.098971 127.22518 
L 223.055544 122.178486 
L 229.012118 116.202907 
L 234.968691 114.315057 
L 240.925264 107.24917 
L 246.881838 103.631494 
L 252.838411 97.988158 
L 258.794984 92.391692 
L 264.751558 89.465747 
L 270.708131 89.523212 
L 276.664704 88.976167 
L 282.621278 89.63093 
L 288.577851 89.85794 
L 294.534425 87.298342 
L 300.490998 84.554181 
L 306.447571 81.181039 
L 312.404145 79.771185 
L 318.360718 84.297192 
L 324.317291 84.220488 
L 330.273865 79.632598 
L 336.230438 76.794604 
L 342.187011 74.811367 
L 348.143585 73.375446 
L 354.100158 70.916184 
L 360.056731 75.086566 
L 366.013305 79.204335 
L 371.969878 74.652972 
L 377.926452 74.660498 
L 383.883025 70.103154 
L 389.839598 71.626634 
L 395.796172 68.817632 
L 401.752745 66.952985 
L 407.709318 66.915862 
L 413.665892 69.463847 
L 419.622465 75.194132 
L 425.579038 80.132073 
" clip-path="url(#p51cdee1926)" style="fill: none; stroke: #ff0000; stroke-width: 4; stroke-linecap: square"/>
   </g>
   <g id="line2d_32">
    <path d="M 74.14121 143.891035 
L 80.097784 159.330405 
L 86.054357 171.099261 
L 92.010931 176.333173 
L 97.967504 177.385079 
L 103.924077 170.657939 
L 109.880651 165.121569 
L 115.837224 167.913884 
L 121.793797 163.637277 
L 127.750371 156.22482 
L 133.706944 142.47153 
L 139.663517 142.909416 
L 145.620091 139.298422 
L 151.576664 134.506891 
L 157.533237 132.158263 
L 163.489811 132.096515 
L 169.446384 126.744841 
L 175.402957 129.588839 
L 181.359531 129.753379 
L 187.316104 129.561731 
L 193.272678 125.503148 
L 199.229251 134.062191 
L 205.185824 133.847359 
L 211.142398 124.58412 
L 217.098971 122.819864 
L 223.055544 117.305312 
L 229.012118 111.55214 
L 234.968691 107.389734 
L 240.925264 97.317861 
L 246.881838 97.651325 
L 252.838411 99.244113 
L 258.794984 91.307916 
L 264.751558 90.724728 
L 270.708131 93.868315 
L 276.664704 85.621887 
L 282.621278 85.213377 
L 288.577851 91.611572 
L 294.534425 91.896551 
L 300.490998 96.658027 
L 306.447571 100.33226 
L 312.404145 102.249974 
L 318.360718 101.928209 
L 324.317291 101.360098 
L 330.273865 98.487861 
L 336.230438 93.283211 
L 342.187011 94.22953 
L 348.143585 97.551069 
L 354.100158 95.54861 
L 360.056731 100.1901 
L 366.013305 97.22117 
L 371.969878 101.284242 
L 377.926452 104.844028 
L 383.883025 103.391696 
L 389.839598 106.043486 
L 395.796172 106.487744 
L 401.752745 104.234775 
L 407.709318 102.116936 
L 413.665892 102.767723 
L 419.622465 95.965326 
L 425.579038 95.26426 
" clip-path="url(#p51cdee1926)" style="fill: none; stroke: #800080; stroke-width: 4; stroke-linecap: square"/>
   </g>
   <g id="line2d_33">
    <path d="M 74.14121 227.38862 
L 80.097784 234.380902 
L 86.054357 236.002446 
L 92.010931 239.54417 
L 97.967504 233.16924 
L 103.924077 225.159105 
L 109.880651 220.387861 
L 115.837224 215.304575 
L 121.793797 205.28829 
L 127.750371 195.308852 
L 133.706944 194.085175 
L 139.663517 186.561039 
L 145.620091 180.547787 
L 151.576664 175.049884 
L 157.533237 176.260094 
L 163.489811 181.308566 
L 169.446384 182.837231 
L 175.402957 176.642142 
L 181.359531 171.851753 
L 187.316104 165.553133 
L 193.272678 158.008945 
L 199.229251 145.785083 
L 205.185824 148.002804 
L 211.142398 150.265187 
L 217.098971 157.49432 
L 223.055544 155.059962 
L 229.012118 160.666877 
L 234.968691 156.488222 
L 240.925264 146.193477 
L 246.881838 144.695482 
L 252.838411 144.857277 
L 258.794984 141.66838 
L 264.751558 149.615539 
L 270.708131 147.939049 
L 276.664704 140.420525 
L 282.621278 145.732992 
L 288.577851 145.95969 
L 294.534425 138.565296 
L 300.490998 140.722692 
L 306.447571 136.273276 
L 312.404145 134.067112 
L 318.360718 129.284244 
L 324.317291 121.260745 
L 330.273865 114.413488 
L 336.230438 120.709516 
L 342.187011 109.738549 
L 348.143585 105.72104 
L 354.100158 104.223602 
L 360.056731 101.122816 
L 366.013305 103.819179 
L 371.969878 97.108343 
L 377.926452 91.33651 
L 383.883025 92.641365 
L 389.839598 104.031937 
L 395.796172 108.547688 
L 401.752745 106.283227 
L 407.709318 96.521746 
L 413.665892 91.625288 
L 419.622465 94.624025 
L 425.579038 86.711206 
" clip-path="url(#p51cdee1926)" style="fill: none; stroke: #008000; stroke-width: 4; stroke-linecap: square"/>
   </g>
   <g id="patch_3">
    <path d="M 56.569319 298.771983 
L 56.569319 12.96 
" style="fill: none; stroke: #333a4c; stroke-width: 1.25; stroke-linejoin: miter; stroke-linecap: square"/>
   </g>
   <g id="patch_4">
    <path d="M 56.569319 298.771983 
L 443.15093 298.771983 
" style="fill: none; stroke: #333a4c; stroke-width: 1.25; stroke-linejoin: miter; stroke-linecap: square"/>
   </g>
   <g id="legend_1">
    <g id="patch_5">
     <path d="M 334.710452 293.271983 
L 435.45093 293.271983 
Q 437.65093 293.271983 437.65093 291.071983 
L 437.65093 229.720395 
Q 437.65093 227.520395 435.45093 227.520395 
L 334.710452 227.520395 
Q 332.510452 227.520395 332.510452 229.720395 
L 332.510452 291.071983 
Q 332.510452 293.271983 334.710452 293.271983 
z
" style="fill: #ffffff; opacity: 0.8; stroke: #cccccc; stroke-linejoin: miter"/>
    </g>
    <g id="line2d_34">
     <path d="M 336.910452 236.289573 
L 347.910452 236.289573 
L 358.910452 236.289573 
" style="fill: none; stroke: #87ceeb; stroke-width: 4; stroke-linecap: square"/>
    </g>
    <g id="text_21">
     <!-- TMBP (ours) -->
     <g transform="translate(367.710452 240.139573) scale(0.11 -0.11)">
      <defs>
       <path id="CMR17-54" d="M 3981 4326 
L 288 4326 
L 179 2918 
L 294 2918 
C 378 3976 467 4160 1453 4160 
C 1568 4160 1754 4160 1805 4154 
C 1926 4135 1926 4058 1926 3912 
L 1926 459 
C 1926 230 1907 160 1376 160 
L 1197 160 
L 1197 0 
C 1504 0 1824 0 2138 0 
C 2451 0 2771 0 3078 0 
L 3078 160 
L 2899 160 
C 2368 160 2349 230 2349 459 
L 2349 3912 
C 2349 4052 2349 4129 2464 4154 
C 2515 4160 2701 4160 2816 4160 
C 3795 4160 3891 3976 3974 2918 
L 4090 2918 
L 3981 4326 
z
" transform="scale(0.015625)"/>
       <path id="CMR17-4d" d="M 1338 4224 
C 1299 4320 1293 4320 1158 4320 
L 339 4320 
L 339 4160 
C 781 4160 851 4160 851 3875 
L 851 610 
C 851 451 851 153 339 153 
L 339 -13 
C 486 0 755 0 915 0 
C 1075 0 1344 0 1491 -13 
L 1491 153 
C 979 153 979 451 979 610 
L 979 4135 
L 986 4135 
L 2490 89 
C 2515 25 2528 -13 2579 -13 
C 2630 -13 2643 25 2669 89 
L 4186 4166 
L 4192 4166 
L 4192 438 
C 4192 153 4122 153 3680 153 
L 3680 -13 
C 3853 0 4198 0 4384 0 
C 4570 0 4922 0 5094 -13 
L 5094 153 
C 4653 153 4582 153 4582 438 
L 4582 3875 
C 4582 4160 4653 4160 5094 4160 
L 5094 4320 
L 4282 4320 
C 4147 4320 4141 4314 4102 4218 
L 2720 502 
L 1338 4224 
z
" transform="scale(0.015625)"/>
       <path id="CMR17-42" d="M 333 4352 
L 333 4186 
C 774 4186 845 4186 845 3900 
L 845 452 
C 845 166 774 166 333 166 
L 333 0 
L 2534 0 
C 3354 0 3885 583 3885 1164 
C 3885 1741 3360 2233 2675 2233 
C 3290 2356 3718 2771 3718 3264 
C 3718 3802 3194 4352 2368 4352 
L 333 4352 
z
M 1248 2304 
L 1248 3937 
C 1248 4155 1261 4186 1517 4186 
L 2336 4186 
C 2970 4186 3251 3674 3251 3277 
C 3251 2791 2861 2304 2170 2304 
L 1248 2304 
z
M 1517 166 
C 1261 166 1248 197 1248 413 
L 1248 2202 
L 2432 2202 
C 3091 2202 3411 1625 3411 1162 
C 3411 699 3046 166 2349 166 
L 1517 166 
z
" transform="scale(0.015625)"/>
       <path id="CMR17-50" d="M 1267 2042 
L 2291 2042 
C 3117 2042 3718 2578 3718 3184 
C 3718 3791 3130 4352 2291 4352 
L 333 4352 
L 333 4186 
C 774 4186 845 4186 845 3899 
L 845 446 
C 845 160 774 160 333 160 
L 333 0 
C 518 0 858 0 1056 0 
C 1254 0 1594 0 1779 0 
L 1779 160 
C 1338 160 1267 160 1267 446 
L 1267 2042 
z
M 1254 2176 
L 1254 3938 
C 1254 4155 1267 4186 1523 4186 
L 2170 4186 
C 2995 4186 3232 3714 3232 3184 
C 3232 2604 2950 2176 2170 2176 
L 1254 2176 
z
" transform="scale(0.015625)"/>
       <path id="CMR17-28" d="M 1958 -1561 
C 1958 -1555 1958 -1542 1939 -1523 
C 1645 -1224 858 -407 858 1581 
C 858 3569 1632 4379 1946 4697 
C 1946 4704 1958 4717 1958 4736 
C 1958 4755 1939 4768 1914 4768 
C 1843 4768 1299 4296 986 3594 
C 666 2887 576 2199 576 1588 
C 576 1128 621 351 1005 -471 
C 1312 -1135 1837 -1600 1914 -1600 
C 1946 -1600 1958 -1587 1958 -1561 
z
" transform="scale(0.015625)"/>
       <path id="CMR17-6f" d="M 2758 1356 
C 2758 2176 2163 2816 1466 2816 
C 768 2816 173 2176 173 1356 
C 173 551 768 -64 1466 -64 
C 2163 -64 2758 551 2758 1356 
z
M 1466 51 
C 1165 51 909 230 762 480 
C 602 767 582 1126 582 1408 
C 582 1677 595 2010 762 2298 
C 890 2509 1139 2714 1466 2714 
C 1754 2714 1997 2554 2150 2330 
C 2349 2029 2349 1607 2349 1408 
C 2349 1158 2336 775 2163 467 
C 1984 173 1709 51 1466 51 
z
" transform="scale(0.015625)"/>
       <path id="CMR17-75" d="M 1882 2693 
L 1882 2528 
C 2259 2528 2317 2489 2317 2186 
L 2317 1032 
C 2317 500 2029 38 1555 38 
C 1030 38 986 348 986 678 
L 986 2763 
L 211 2693 
L 211 2528 
C 467 2528 640 2528 646 2274 
L 646 1058 
C 646 633 646 361 813 183 
C 896 101 1056 -64 1517 -64 
C 2061 -64 2272 377 2323 506 
L 2330 506 
L 2330 -63 
L 3091 -63 
L 3091 128 
C 2714 128 2656 166 2656 473 
L 2656 2763 
L 1882 2693 
z
" transform="scale(0.015625)"/>
       <path id="CMR17-72" d="M 960 1497 
C 960 2112 1222 2688 1702 2688 
C 1747 2688 1792 2682 1837 2662 
C 1837 2662 1696 2617 1696 2452 
C 1696 2298 1818 2234 1914 2234 
C 1990 2234 2131 2279 2131 2458 
C 2131 2663 1926 2790 1709 2790 
C 1222 2790 1011 2317 947 2093 
L 941 2093 
L 941 2790 
L 198 2720 
L 198 2554 
C 576 2554 634 2515 634 2208 
L 634 428 
C 634 184 608 153 198 153 
L 198 -13 
C 352 0 646 0 813 0 
C 998 0 1325 0 1498 -13 
L 1498 153 
C 1037 153 960 153 960 440 
L 960 1497 
z
" transform="scale(0.015625)"/>
       <path id="CMR17-29" d="M 1683 1581 
C 1683 2040 1638 2817 1254 3639 
C 947 4303 422 4768 346 4768 
C 326 4768 301 4761 301 4729 
C 301 4717 307 4710 314 4697 
C 621 4378 1402 3568 1402 1584 
C 1402 -407 627 -1217 314 -1537 
C 307 -1549 301 -1556 301 -1568 
C 301 -1600 326 -1600 346 -1600 
C 416 -1600 960 -1128 1274 -426 
C 1594 281 1683 969 1683 1581 
z
" transform="scale(0.015625)"/>
      </defs>
      <use xlink:href="#CMR17-54" transform="scale(0.996264)"/>
      <use xlink:href="#CMR17-4d" transform="translate(66.509881 0) scale(0.996264)"/>
      <use xlink:href="#CMR17-42" transform="translate(151.196821 0) scale(0.996264)"/>
      <use xlink:href="#CMR17-50" transform="translate(216.385576 0) scale(0.996264)"/>
      <use xlink:href="#CMR17-28" transform="translate(309.047842 0) scale(0.996264)"/>
      <use xlink:href="#CMR17-6f" transform="translate(344.32861 0) scale(0.996264)"/>
      <use xlink:href="#CMR17-75" transform="translate(390.019087 0) scale(0.996264)"/>
      <use xlink:href="#CMR17-72" transform="translate(440.914457 0) scale(0.996264)"/>
      <use xlink:href="#CMR17-73" transform="translate(476.195225 0) scale(0.996264)"/>
      <use xlink:href="#CMR17-29" transform="translate(511.996563 0) scale(0.996264)"/>
     </g>
    </g>
    <g id="line2d_35">
     <path d="M 336.910452 252.229299 
L 347.910452 252.229299 
L 358.910452 252.229299 
" style="fill: none; stroke: #ff0000; stroke-width: 4; stroke-linecap: square"/>
    </g>
    <g id="text_22">
     <!-- TMB -->
     <g transform="translate(367.710452 256.079299) scale(0.11 -0.11)">
      <use xlink:href="#CMR17-54" transform="scale(0.996264)"/>
      <use xlink:href="#CMR17-4d" transform="translate(66.509881 0) scale(0.996264)"/>
      <use xlink:href="#CMR17-42" transform="translate(151.196821 0) scale(0.996264)"/>
     </g>
    </g>
    <g id="line2d_36">
     <path d="M 336.910452 267.560194 
L 347.910452 267.560194 
L 358.910452 267.560194 
" style="fill: none; stroke: #800080; stroke-width: 4; stroke-linecap: square"/>
    </g>
    <g id="text_23">
     <!-- TMP -->
     <g transform="translate(367.710452 271.410194) scale(0.11 -0.11)">
      <use xlink:href="#CMR17-54" transform="scale(0.996264)"/>
      <use xlink:href="#CMR17-4d" transform="translate(66.509881 0) scale(0.996264)"/>
      <use xlink:href="#CMR17-50" transform="translate(151.196821 0) scale(0.996264)"/>
     </g>
    </g>
    <g id="line2d_37">
     <path d="M 336.910452 282.891088 
L 347.910452 282.891088 
L 358.910452 282.891088 
" style="fill: none; stroke: #008000; stroke-width: 4; stroke-linecap: square"/>
    </g>
    <g id="text_24">
     <!-- TBP -->
     <g transform="translate(367.710452 286.741088) scale(0.11 -0.11)">
      <use xlink:href="#CMR17-54" transform="scale(0.996264)"/>
      <use xlink:href="#CMR17-42" transform="translate(66.509881 0) scale(0.996264)"/>
      <use xlink:href="#CMR17-50" transform="translate(131.698635 0) scale(0.996264)"/>
     </g>
    </g>
   </g>
  </g>
 </g>
 <defs>
  <clipPath id="p51cdee1926">
   <rect x="56.569319" y="12.96" width="386.581611" height="285.811983"/>
  </clipPath>
 </defs>
</svg>
